<svg xmlns="http://www.w3.org/2000/svg" data-name="Layer 1" viewBox="0 0 100 125" x="0px" y="0px"><title>Color picks</title><path d="M7.55,22.86H24.92a11.59,11.59,0,1,0,0-11.1H7.55a5.55,5.55,0,0,0,0,11.1Z"/><path d="M92.45,22.86a5.55,5.55,0,0,0,0-11.1H52.64a13.73,13.73,0,0,1,0,11.1Z"/><path d="M62.58,61.59A11.59,11.59,0,1,0,52.41,44.45H7.55a5.55,5.55,0,1,0,0,11.1H52.41A11.59,11.59,0,0,0,62.58,61.59Z"/><path d="M92.45,44.45H80.12a13.73,13.73,0,0,1,0,11.1H92.45a5.55,5.55,0,0,0,0-11.1Z"/><path d="M35.09,71.11a11.59,11.59,0,0,0-10.17,6H7.55a5.55,5.55,0,1,0,0,11.1H24.92A11.58,11.58,0,1,0,35.09,71.11Z"/><path d="M92.45,77.14H52.64a13.73,13.73,0,0,1,0,11.1H92.45a5.55,5.55,0,0,0,0-11.1Z"/><text x="0" y="115" fill="#000000" font-size="5px" font-weight="bold" font-family="'Helvetica Neue', Helvetica, Arial-Unicode, Arial, Sans-serif">Created by Prashanth Rapolu</text><text x="0" y="120" fill="#000000" font-size="5px" font-weight="bold" font-family="'Helvetica Neue', Helvetica, Arial-Unicode, Arial, Sans-serif">from the Noun Project</text></svg>